<svg viewBox="0 0 24 24" xmlns="http://www.w3.org/2000/svg" fill="#FFFC00">
  <path d="M12.206.793c.99 0 4.347.276 5.93 3.821.529 1.193.403 3.219.299 4.847l-.003.06c-.012.18-.022.345-.032.498.006.013.013.026.019.04.132.33.495.688 1.593 1.163.385.171.645.37.645.605 0 .17-.088.335-.25.47-.264.216-.642.356-1.097.447-.159.032-.326.065-.501.099-.032.072-.065.16-.098.263-.144.458-.297 1.229-1.293 1.472-.089.021-.18.031-.27.031-.322 0-.631-.146-.881-.276-.226-.117-.488-.251-.832-.251-.071 0-.144.005-.218.016-.508.072-1.083.643-1.823.643a.866.866 0 01-.099-.006c-.37-.045-.707-.299-.977-.533-.362-.314-.704-.61-1.2-.61s-.838.296-1.2.61c-.271.234-.607.488-.977.533-.036.004-.067.006-.099.006-.74 0-1.315-.571-1.823-.643-.074-.011-.147-.016-.218-.016-.345 0-.606.134-.832.251-.249.13-.558.276-.88.276-.091 0-.181-.01-.271-.031-.996-.243-1.149-1.014-1.293-1.472-.033-.103-.066-.191-.098-.263a41.622 41.622 0 01-.501-.099c-.455-.091-.833-.231-1.097-.447-.162-.135-.25-.3-.25-.47 0-.236.26-.434.645-.605 1.098-.475 1.461-.833 1.593-1.163.006-.014.013-.027.019-.04-.01-.153-.02-.318-.032-.498l-.003-.06c-.104-1.628-.23-3.654.3-4.847C3.609 1.068 6.966.793 7.959.793zm-.002 1.534c-.616 0-3.157.042-4.254 2.489-.324.722-.229 2.246-.147 3.597l.002.034c.013.201.024.378.035.541.012.167.024.322.035.467-.718.344-2.168 1.136-2.168 2.438 0 .742.385 1.436 1.054 1.914.32.228.703.404 1.13.544.016.05.032.103.048.159.173.599.426 1.469 1.734 1.768.339 0 .648-.149.914-.291.309-.165.563-.284.886-.284.083 0 .165.006.248.017.422.058.915.521 1.427.521a.61.61 0 00.064-.004c.205-.025.396-.176.616-.366.425-.368.865-.749 1.562-.749s1.137.381 1.562.749c.22.19.411.341.616.366.018.002.04.004.064.004.512 0 1.005-.463 1.427-.521.083-.011.165-.017.248-.017.323 0 .577.119.886.284.267.142.575.291.914.291 1.308-.299 1.561-1.169 1.734-1.768.016-.056.032-.109.048-.159.427-.14.81-.316 1.13-.544.669-.478 1.054-1.172 1.054-1.914 0-1.303-1.45-2.094-2.168-2.438.011-.145.023-.3.035-.467.011-.163.022-.34.035-.541l.002-.034c.082-1.351.177-2.875-.147-3.597-1.097-2.447-3.638-2.489-4.254-2.489l-.195-.002z"/>
</svg>